<svg xmlns="http://www.w3.org/2000/svg" viewBox="0 0 1024 768">
  <g stroke="#000" stroke-width="3.3">
    <path fill="#33449d" fill-rule="evenodd" d="M407 532.8v122.4l85.2 49v-81.6l-28.4-16.4v-40.8z" stroke-linejoin="round"/>
    <path fill="#ffeb01" fill-rule="evenodd" d="M407 532.8l110.4-38.5 85.3 49-72.6 25.3-28-16.4-38 13.2z" stroke-linejoin="round"/>
    <path fill="#ff1200" fill-rule="evenodd" d="M492.2 704.2l110.5-38.5V543.3L530 568.6v40.8l-37.8 13.2z" stroke-linejoin="round"/>
    <path fill="#c7c7c6" fill-rule="evenodd" d="M463.8 565.4v40.8l28.4 16.4 38-13.2v-40.8l-28.5-16.4z" stroke-linejoin="round"/>
    <path fill="none" d="M448 678.8V638l15.8 9v-40.8M448 638l-12.6-7.3v-20.4L407 594m113.6 100.3V665l53.6-18.6v-61.2l28.5-9.8"/>
    <path fill="none" d="M574.2 614.4l-44 15.4v-20.4M435.4 523l28.4 16.2 82-28.6M508 523.8l28.4 16.4-34.7 12m-38 54l38-13.2 28.4 16.4m-28-57.2V593"/>
    <path fill="none" d="M583.7 679.6l-28.4-16.4m28.4 57.2v-40.8L620 667" stroke-linejoin="round"/>
    <path fill="#33449d" fill-rule="evenodd" d="M555.3 663.2V704l28.4 16.4v-40.8z" stroke-linejoin="round"/>
    <path fill="#ff1200" fill-rule="evenodd" d="M583.7 679.6L620 667v40.7l-36.3 12.7z" stroke-linejoin="round"/>
    <path fill="#ffeb01" fill-rule="evenodd" d="M555.3 663.2l36.3-12.6L620 667l-36.3 12.6z" stroke-linejoin="round"/>
  </g>
  <g fill="#f2f2f2" font-family="Sans">
    <text x="252.5" y="634.1" stroke-width=".9" style="line-height:125%" font-size="126" letter-spacing="0" word-spacing="0" transform="translate(0 -265.17)">
      Prologin
    </text>
    <text x="654.2" y="662.7" font-size="30" letter-spacing="6.7" transform="translate(0 -265.17)">@YEAR@</text>
  </g>
</svg>
